<svg width="157" height="226" viewBox="0 0 157 226" fill="none" xmlns="http://www.w3.org/2000/svg">
<g clip-path="url(#clip0_654_2702)">
<path d="M53.8101 23.6544C59.8357 46.607 58.5101 56.6907 44.5374 95.3403C39.2183 109.986 36.7504 121.022 36.545 131.432C36.0966 149.975 43.0175 171.459 56.7498 194.11C62.2224 203.159 72.8061 218.489 73.1236 217.881C73.1095 215.576 72.9528 213.275 72.6542 210.99C71.2082 196.944 72.6134 182.256 77.6064 159.826C80.8219 145.502 82.8578 129.853 82.642 121.611C82.1807 111.663 80.2643 101.838 76.954 92.4463L74.7536 86.5234L77.2452 90.4044C78.7886 92.8874 80.8523 97.8356 82.7683 103.933C87.696 119.344 88.0772 128.382 84.8367 163.405C82.8116 185.835 82.54 197.114 83.6575 207.956C84.8919 219.44 84.5722 218.693 88.2768 217.528C93.5249 215.879 104.037 210.202 110.154 205.651C125.651 194.251 136.035 175.215 137.236 156.097C138.198 141.888 137.422 136.45 131.819 118.622C127.478 104.807 126.005 101.2 122.21 94.2517C107.574 67.645 86.2568 42.7138 58.485 19.6413L51.1688 13.6301L53.8101 23.6544Z" fill="#257708"/>
</g>
<defs>
<clipPath id="clip0_654_2702">
<rect width="99.101" height="205.661" fill="white" transform="translate(0 29.7096) rotate(-17.4451)"/>
</clipPath>
</defs>
</svg>
