<svg width="200" height="189" viewBox="0 0 200 189" fill="none" xmlns="http://www.w3.org/2000/svg">
<g clip-path="url(#clip0_654_2690)">
<path d="M167.613 169.403C167.588 168.627 167.408 167.864 167.083 167.16C166.81 166.477 166.713 165.793 166.888 165.616C167.063 165.438 167.06 164.909 166.819 164.454C166.014 162.893 165.898 160.663 166.588 160.171C167.072 159.804 167.101 159.327 166.679 157.991C166.258 156.656 166.286 156.178 166.822 155.78C167.358 155.382 167.449 155.008 167.298 154.003C167.17 153.267 167.176 152.52 167.31 152.332C167.384 151.848 167.338 151.353 167.177 150.891C167.023 150.184 167.11 149.446 167.424 148.793C167.772 148.085 167.714 147.059 167.228 145.267C166.827 143.849 166.675 142.49 166.89 142.147C167.208 141.74 166.883 140.912 165.955 139.673C165.11 138.455 164.701 137.431 164.852 136.807C164.962 136.257 164.867 135.685 164.585 135.201C164.157 134.613 164.197 134.446 164.673 134.298C165.148 134.149 165.094 133.828 164.47 133.147C163.981 132.543 163.551 131.893 163.186 131.206C162.924 130.658 162.516 129.81 162.244 129.304C161.868 128.684 161.866 128.331 162.278 128.079C162.897 127.701 162.396 126.875 160.618 125.341C159.38 124.21 158.242 122.976 157.213 121.651C157.015 121.305 156.713 121.031 156.35 120.869C156.143 120.818 156.079 120.539 156.284 120.236C156.489 119.934 156.322 119.541 155.813 119.285C155.305 119.029 153.738 118.252 152.254 117.494C150.77 116.737 149.326 115.814 149.024 115.432C148.558 114.873 147.981 114.418 147.33 114.095C146.707 113.767 145.369 113.134 144.393 112.632C143.418 112.131 141.903 111.498 141.022 111.152C139.176 110.438 138.718 109.975 140.21 110.338C141.231 110.462 142.266 110.416 143.272 110.202C144.237 109.992 145.228 109.936 146.21 110.036C146.852 110.118 147.504 109.982 148.06 109.649C149.05 109.009 151.933 108.346 155.087 108.012C156.163 107.922 157.434 107.57 157.918 107.204C158.821 106.752 159.797 106.467 160.8 106.364C163.251 106.035 165.904 105.051 165.87 104.471C165.838 104.242 167.025 103.695 168.523 103.31C170.259 102.852 171.26 102.347 171.371 101.89C171.482 101.432 172.533 100.543 173.77 99.7873C175.007 99.0315 176.037 98.0489 176.148 97.5916C176.187 97.3796 176.273 97.1788 176.399 97.0039C176.525 96.829 176.688 96.6843 176.877 96.5801C178.033 96.1569 180.647 93.5342 180.91 92.4533C181.061 91.8297 181.379 91.2464 181.617 91.1721C181.854 91.0978 182.387 90.1706 182.774 89.12C183.112 88.2394 183.498 87.3777 183.929 86.5387C184.544 85.4553 183.437 85.4943 181.591 86.5864C180.002 87.521 179.826 87.5223 178.643 86.794C177.694 86.2029 176.599 85.8908 175.482 85.8929C174.353 85.8387 173.286 85.5349 172.922 85.2263C172.23 84.7717 171.46 84.45 170.651 84.2774C169.739 84.0556 168.909 83.6776 168.845 83.3979C168.781 83.1182 167.496 82.6293 166.045 82.2764C164.594 81.9235 163.35 81.4447 163.266 81.2481C163.14 80.8651 158.72 80.6266 153.609 80.7043C152.326 80.7445 151.104 80.5352 150.854 80.2984C150.375 79.7415 146.398 79.1263 144.816 79.3139C144.01 79.3126 143.214 79.1341 142.485 78.7909C141.58 78.3872 140.605 78.165 139.615 78.1368C138.787 78.1115 136.633 77.94 134.863 77.8176C133.093 77.6952 130.774 77.4834 129.697 77.3976C128.58 77.3113 127.456 77.3786 126.356 77.5976C124.829 77.994 123.268 78.2481 121.694 78.3568C120.566 78.3026 115.343 80.6428 112.342 82.5108C109.342 84.3789 108.105 85.311 103.153 89.7867C101.094 91.5754 100.423 91.8084 99.8274 90.827C99.2431 90.1397 98.6064 89.499 97.923 88.9106C92.0783 83.702 88.0319 79.9436 87.2192 78.9533C86.8397 78.4857 86.3907 78.0795 85.8879 77.7488C85.5563 77.6682 81.8839 74.1769 78.9697 71.1783L77.3978 69.519L78.8485 69.8719C79.8935 70.1613 80.8973 70.583 81.8357 71.1269C82.6868 71.5981 83.4551 72.0492 83.5693 72.1211C83.7879 72.2184 83.9777 72.3708 84.1202 72.5633C85.4111 73.9341 92.7147 77.2959 97.2233 78.6129C101.732 79.9298 102.405 80.0495 104.856 79.7209C106.314 79.5031 107.75 79.1921 108.018 78.993C108.286 78.794 109.443 78.5472 110.55 78.5083C112.65 78.3585 118.417 77.0312 118.931 76.5399C119.106 76.3623 120.232 76.0638 121.473 75.8372C124.44 75.3701 126.453 74.4947 126.356 73.8106C126.354 73.4579 126.838 73.0913 127.499 72.8999C129.142 72.4629 132.439 69.9183 132.362 69.1511C132.319 68.7883 133.73 67.6785 135.638 66.5134C137.484 65.4213 139.07 64.1339 139.171 63.7182C139.343 63.0114 140.567 61.7681 143.112 59.7892C143.813 59.2551 144.357 58.4627 144.375 58.0268C144.393 57.5909 145.009 56.6839 145.936 55.9407C146.755 55.3295 147.459 54.576 148.014 53.7161C148.348 53.0504 148.725 52.4067 149.141 51.7886C149.48 51.2986 149.694 50.7783 149.6 50.6234C149.506 50.4684 149.793 50.0098 150.236 49.6332C150.808 49.0008 151.278 48.2835 151.631 47.5068C152.238 46.346 152.934 45.2345 153.713 44.1823C154.462 43.0876 155.015 42.0773 154.921 41.9223C154.827 41.7674 154.041 41.7522 153.224 41.8617C152.052 42.0371 150.871 42.1321 149.687 42.1461C148.58 42.185 146.996 42.1962 146.158 42.2125C145.103 42.22 144.574 42.0474 144.448 41.6644C144.322 41.2814 143.856 41.212 142.657 41.4488C141.727 41.6628 141.033 41.6262 141.011 41.3566C140.956 40.859 137.315 41.03 134.732 41.7227C133.513 42.0426 132.819 42.006 132.6 41.6444C132.287 41.1278 126.7 41.3541 125.41 41.965C124.719 42.2811 121.314 42.2014 117.421 41.7828C115.153 41.5395 113.809 41.6527 112.26 42.2447C111.103 42.6679 109.997 42.8832 109.728 42.7295C109.458 42.5758 107.66 43.1072 105.709 43.9096C103.758 44.7119 100.939 45.8316 99.4522 46.3505C97.9651 46.8694 94.9119 48.5926 92.613 50.1029C87.6136 53.5102 86.541 54.1299 86.168 54.0392C85.6291 53.9081 81.407 59.3539 78.7722 63.6887C77.2647 66.096 76.0241 68.128 75.9624 68.2011C75.9008 68.2741 66.7757 61.2108 65.6001 60.0882C64.1233 58.7602 51.8879 48.7826 51.5977 48.7121C51.4319 48.6717 50.8901 48.0115 50.317 47.2997L49.3365 45.9163L52.1873 46.8299C53.7835 47.3063 57.1427 48.4757 59.6932 49.3603C66.4429 51.7508 69.3645 52.3734 71.6896 51.8382C72.4871 51.6354 73.3077 51.5389 74.13 51.5512C74.3787 51.6117 75.422 51.2931 76.4229 50.788C77.7159 50.2693 79.0594 49.8877 80.4313 49.6495C82.8303 49.3524 86.8458 47.6432 87.0693 46.905C87.13 46.6555 87.8721 46.1315 88.7496 45.7725C90.1697 45.0951 91.5539 44.3442 92.8966 43.5229C94.4491 42.5897 96.0703 41.777 97.7462 41.0919C99.6256 40.4042 100.915 39.6169 103.82 37.4176C104.55 36.9849 105.305 36.5951 106.08 36.2499C107.267 35.702 108.657 34.499 110.034 32.8085C110.971 31.5894 112.036 30.4756 113.212 29.4867C113.831 29.1088 114.242 28.5041 114.24 28.1514C114.238 27.7986 114.998 26.8387 116.09 25.9595C116.796 25.4299 117.454 24.8384 118.056 24.1921C118.147 23.818 121.85 21.7686 122.223 21.8593C122.318 21.8734 122.414 21.8508 122.493 21.7963C122.571 21.7418 122.626 21.6594 122.646 21.5658C122.747 21.1501 122.353 20.9661 119.856 20.4028C119.069 20.2112 116.913 19.6869 115.1 19.2017C113.146 18.7317 111.145 18.4814 109.135 18.4554C104.273 18.5935 103.755 18.5557 103.142 18.0101C102.528 17.4645 100.808 17.1343 97.7857 16.9274C96.8566 16.9393 95.9339 17.0856 95.0461 17.3618C94.1959 17.6804 93.2612 17.687 92.4076 17.3805C91.2976 16.8903 88.3922 17.2844 85.1187 18.4695C84.1583 18.8083 83.1655 18.9191 82.9987 18.7024C82.832 18.4857 82.563 18.5084 82.5125 18.7162C82.4619 18.9241 81.9241 18.9694 81.2508 18.8497C80.5776 18.7299 78.9742 18.8242 77.5892 19.1038C76.2042 19.3834 74.5493 19.5092 73.9276 19.3579C73.3059 19.2067 72.6852 19.2319 72.4587 19.441C72.329 19.5309 72.172 19.5725 72.015 19.5584C71.858 19.5444 71.711 19.4756 71.5995 19.364C70.4986 18.6559 58.475 26.0348 56.4721 28.6739C52.4664 33.9522 48.5343 41.2738 48.4552 43.7645C48.3672 44.6678 48.2438 44.8139 47.797 44.485C46.9246 43.9206 41.2811 37.7041 41.2064 37.2896C41.1811 37.177 41.1248 37.0739 41.0438 36.9919C40.9629 36.9099 40.8605 36.8524 40.7485 36.826C40.4998 36.7655 39.1675 35.3846 37.7099 33.7971C36.2523 32.2096 34.7836 30.4873 34.3671 30.0338C33.9506 29.5802 33.0136 28.5596 32.2534 27.7142C29.9629 25.2196 30.0043 25.2297 29.6807 26.56C29.4077 27.6825 29.8352 28.2709 34.666 33.497C44.8269 44.423 46.5574 46.6934 44.8813 46.726C43.6311 46.9707 42.3961 47.2878 41.1822 47.6755C38.9612 48.3241 37.4963 49.1126 36.3953 50.2098C33.9355 52.5617 31.7718 56.0424 31.1135 58.5682C30.8042 59.538 30.183 60.3781 29.3472 60.9567C27.4202 62.3813 26.2504 64.1223 25.0269 67.3473C24.5743 68.6267 23.9955 69.8577 23.2989 71.022C22.811 71.7984 22.4425 72.644 22.2059 73.5302C22.0169 74.3495 21.6503 75.1172 21.1321 75.7789C20.1757 76.8232 18.8165 81.6884 19.2249 82.5363C19.424 82.9811 19.1823 84.1552 18.5614 85.9856C17.9406 87.8161 17.7191 88.9071 17.9172 89.1754C18.1355 89.3606 18.1506 90.2009 17.9484 91.0324C17.7672 92.1824 17.841 93.358 18.1644 94.4755C18.4951 95.7151 18.6418 96.9971 18.5998 98.2801C18.533 99.2766 18.6512 100.054 18.8473 99.9696C19.374 99.7895 19.7126 101.105 19.5992 103.015C19.4311 106.232 19.6705 108.316 20.1679 108.437C21.0382 108.649 20.4761 109.877 18.9515 111.091C17.8495 112.012 17.6958 112.283 18.1012 112.602C19.2647 113.413 23.9313 111.554 24.265 110.182C24.3358 109.891 25.1082 109.242 25.9847 108.707C27.0449 108.054 27.9882 107.226 28.7751 106.259C29.4323 105.363 30.1632 104.704 30.4119 104.764C30.6606 104.825 30.9073 104.532 30.9983 104.158C31.3725 102.62 35.1476 98.6508 36.481 98.4027C37.2251 98.2315 38.3382 97.4454 39.14 96.4956C39.8386 95.6088 40.5797 94.9084 40.7869 94.9588C41.3671 95.0999 42.8251 93.0768 44.0314 90.4641C44.5347 89.3058 45.1561 88.2027 45.8857 87.1724C46.2871 86.7856 47.0029 85.2865 47.5227 83.8718C48.0424 82.4571 48.6147 81.1872 48.8108 81.1028C49.6782 80.7855 50.1464 79.4022 51.7867 73.0202C53.0306 67.9067 53.3512 66.0472 53.1168 64.8454C52.9672 64.0164 52.7419 62.5966 52.6025 61.726C52.3216 59.6322 50.839 55.4406 49.3521 52.3489C47.74 49.0506 47.9442 48.5719 50.1985 50.133C54.7898 53.2754 73.0984 68.6052 73.6533 69.753C73.9778 70.4043 73.4318 70.8439 69.8318 72.8303C67.6125 74.0579 65.514 75.4936 63.5646 77.1182C61.1564 79.4385 56.2731 85.0757 56.1012 85.7825C55.4705 87.1196 54.759 88.417 53.9709 89.6675C52.7371 91.8625 51.6808 94.153 50.8121 96.5168C50.1296 98.4204 49.3449 100.563 48.9971 101.271C48.6291 102.062 48.5299 102.831 48.7705 103.286C49.011 103.74 48.831 104.842 48.0979 106.953C47.1504 109.585 45.6002 115.416 45.6051 116.298C45.6414 116.894 45.6136 117.493 45.5221 118.083C45.4937 118.561 45.6181 118.591 46.2166 118.296C46.8151 118.001 46.8787 118.281 46.2922 120.692C45.6146 123.478 45.6964 125.127 46.5809 126.002C46.8305 126.239 47.0013 127.161 46.9547 128.075C46.9155 129.16 47.005 130.246 47.2213 131.31C47.441 132.387 47.5271 133.488 47.4778 134.587C47.4019 135.801 47.5595 136.236 48.0559 136.181C48.8212 136.103 48.8 136.009 48.7126 140.7C48.6072 144.02 48.8113 145.347 49.433 145.498C49.806 145.589 51.9342 143.156 52.1163 142.408C52.2174 141.992 52.4964 141.928 52.9635 142.174C53.4305 142.42 53.9673 142.198 54.9753 141.122C55.7366 140.339 56.5302 139.783 56.7486 139.968C57.7251 140.646 61.1534 137.561 62.6276 134.749C63.2726 133.541 63.7256 133.123 64.2644 133.254C64.969 133.426 66.258 132.638 69.2657 130.2C70.0182 129.565 70.6396 128.788 71.0947 127.914C72.1381 125.791 73.8033 123.818 74.333 124.167C74.5615 124.31 74.8405 124.246 74.891 124.038C75.161 123.586 75.5395 123.209 75.992 122.941C76.5279 122.543 77.5854 121.083 78.3225 119.677C78.9181 118.504 79.6294 117.394 80.4457 116.363C81.3203 115.475 81.9643 114.09 83.4002 109.992C83.9089 108.443 84.6965 106.829 85.1494 106.411C85.6024 105.993 85.8895 105.534 85.8268 105.431C85.7642 105.327 85.83 104.155 86.0606 102.846C86.5289 99.657 86.2835 96.5151 85.1892 91.4492C84.69 89.1702 84.3161 87.0978 84.3768 86.8483C84.5275 86.0484 81.6518 80.7254 79.1279 77.2053C76.8121 73.9119 75.7973 71.9477 76.3544 71.6429C76.6223 71.4439 81.718 75.9419 92.1307 85.6522C95.3553 88.6383 99.1863 92.7406 99.0953 93.1147C98.7678 93.534 98.3951 93.9159 97.9842 94.2535C93.0111 98.6359 89.0924 102.835 87.1532 105.753C85.8499 107.682 85.4636 108.909 83.1377 118.471C80.9624 127.233 80.5811 129.341 80.8266 130.678C81.1469 132.429 81.1052 136.03 80.7703 139.031C80.5427 140.869 80.9044 142.63 81.2179 141.341C81.2988 141.009 81.6485 142.459 81.9607 144.604C82.2729 146.75 82.7499 148.759 83.0309 149.048C83.3211 149.559 83.4973 150.128 83.5473 150.714C83.6281 152.187 84.1302 154.995 84.4011 155.325C84.5993 155.594 84.768 156.163 85.6482 159.944C85.861 161.298 85.9243 162.672 85.8369 164.041C85.5747 168.909 85.609 169.49 86.1892 169.631C86.4196 169.627 86.6462 169.572 86.853 169.47C87.0599 169.368 87.2419 169.222 87.3862 169.041C87.8663 168.476 88.3781 167.939 88.9189 167.433C89.8785 166.352 90.7476 165.194 91.5173 163.97C92.5739 162.333 93.3453 161.508 93.6465 161.714C94.1348 162.052 96.5987 158.601 97.6816 156.134C97.9809 155.462 98.4707 154.892 99.09 154.495C99.7299 154.211 100.406 153.054 101.294 150.848C101.96 149.151 102.743 147.503 103.636 145.914C104.302 144.799 105.116 142.355 105.945 138.946C106.684 135.911 107.416 133.624 107.725 133.435C108.55 132.931 109.516 124.447 109.449 118.046C109.427 115.971 109.114 113.649 108.272 109.35C108.096 108.592 108.005 107.816 108 107.038C108.028 106.914 108.026 106.786 107.995 106.664C107.964 106.541 107.904 106.428 107.821 106.333C107.623 106.242 107.12 105.062 106.616 103.707C105.891 101.971 105.02 100.3 104.011 98.7138C103.041 97.2889 102.371 96.0693 102.516 96.0164C102.774 95.8589 106.34 98.8841 106.446 99.3502C106.447 99.5266 107.062 100.249 107.748 100.856C110.078 103.008 111.258 104.836 112.529 108.272C113.277 110.218 113.785 112.249 114.043 114.32C114.102 115.318 114.274 116.305 114.556 117.263C114.733 117.438 115.028 118.391 115.22 119.406C115.657 121.582 118.774 131.147 119.337 131.9C119.723 132.478 121.293 137.572 121.446 138.93C121.547 139.418 121.813 139.855 122.198 140.17C122.775 140.73 123.238 141.396 123.565 142.131C125.24 145.709 127.723 149.219 128.561 149.203C129.099 149.158 129.983 150.033 131.266 151.799C132.278 153.234 133.35 154.419 133.661 154.407C133.971 154.394 134.835 155.353 135.659 156.478C136.921 158.15 137.285 158.458 138.049 158.204C138.72 157.971 139.207 158.134 140.185 158.988C141.558 160.202 143.995 161.192 144.147 160.568C144.278 160.028 145.128 160.322 146.251 161.3C146.896 161.897 147.383 162.06 147.62 161.809C147.857 161.559 148.644 161.75 149.837 162.26C151.381 162.856 152.956 163.372 154.554 163.804C156.16 164.239 157.84 164.912 158.267 165.324C158.709 165.745 159.295 165.982 159.905 165.987C160.754 165.929 164.122 168.686 165.696 170.698C167.103 172.493 167.443 172.267 167.613 169.403ZM110.817 101.866C110.256 101.466 109.912 101.074 110.025 100.969C110.139 100.865 110.72 101.182 111.281 101.583C112.528 102.591 112.167 102.811 110.817 101.866ZM106.916 98.2315C105.178 96.5319 105.353 96.3543 107.214 97.9078C108.046 98.6386 108.588 99.2988 108.443 99.3517C108.299 99.4046 107.624 98.9321 106.916 98.2315Z" fill="#95C11F"/>
</g>
<defs>
<clipPath id="clip0_654_2690">
<rect width="153" height="168" fill="white" transform="translate(199.403 39.7092) rotate(103.672)"/>
</clipPath>
</defs>
</svg>
