<svg width="244" height="245" viewBox="0 0 244 245" fill="none" xmlns="http://www.w3.org/2000/svg">
<g clip-path="url(#clip0_654_2694)">
<path d="M199.084 178.323C195.44 174.413 192.424 170.238 192.297 168.858C192.287 168.658 192.335 168.461 192.435 168.292C192.535 168.122 192.683 167.988 192.862 167.904C193.688 167.446 193.151 165.02 191.845 163.111C190.945 161.79 190.973 161.705 192.14 160.8C193.59 159.619 193.412 158.925 190.456 155.039L188.369 152.329L189.396 151.792C190.1 151.381 190.733 150.862 191.272 150.253C192.038 149.391 192.064 149.077 191.396 148.05C190.663 147.024 189.797 146.097 188.822 145.295C187.264 143.98 187.061 143.658 187.43 143.298C187.799 142.938 187.537 142.499 186.293 141.109C183.343 137.911 183.489 138.174 184.513 137.407C185.139 136.92 185.854 136.557 186.623 136.335C187.28 136.157 188.504 135.312 189.356 134.482L190.918 132.96L189.1 131.435C188.043 130.547 186.915 129.749 185.727 129.053C183.598 127.947 183.366 127.652 183.787 126.607C184.011 126.099 184.009 125.869 183.811 126.063C183.654 126.126 183.48 126.135 183.313 126.087C183.147 126.04 182.999 125.94 182.892 125.802C182.169 125.06 179.466 123.876 178.262 123.777C177.402 123.69 177.345 123.63 177.799 123.188C179.758 121.279 173.821 120.355 165.954 121.312C163.436 121.625 161.884 121.055 159.229 118.784C157.497 117.291 157.323 117.055 157.866 116.816C158.428 116.503 158.944 116.117 159.402 115.666C160.594 114.505 163.6 114.352 168.391 115.236C175.993 116.562 178.458 116.763 180.486 116.232C182.001 115.798 182.086 115.715 181.964 114.908C181.842 114.102 181.899 114.046 182.616 114.157C182.97 114.224 183.331 114.177 183.646 114.021C183.788 113.883 184.874 113.577 186.074 113.333C188.275 112.865 191.158 111.676 191.468 111.143C191.721 110.664 195.749 109.516 198.038 109.252C201.271 108.878 203.643 108.302 204.727 107.709L205.752 107.114L203.848 105.558C202.854 104.73 201.771 104.019 200.621 103.439C196.538 101.577 191.344 97.2683 192.168 96.466C192.524 95.947 192.78 95.3639 192.926 94.7444C193.258 93.4378 193.258 93.4378 191.587 92.4051C189.744 91.2516 187.991 90.5885 187.276 90.7068C186.962 90.7818 186.759 90.5741 186.698 90.1134C186.636 89.6528 186.347 89.2987 185.543 89.0414C183.877 88.5246 183.673 88.1449 184.465 86.969C184.901 86.2852 185.16 85.4973 185.217 84.6741C185.265 83.5868 185.091 83.3514 184.027 82.827C182.415 81.9683 178.596 80.889 176.733 80.7379L175.243 80.6284L175.346 79.3711L175.45 78.1712L172.838 77.5353L170.169 76.8975L170.762 75.9725C171.497 74.8519 171.733 72.4244 171.233 70.9454C170.938 69.9607 170.736 69.8677 168.991 70.0072C167.89 70.1018 166.8 70.2744 165.73 70.5236C163.702 71.1118 161.953 70.9073 161.401 69.9996C161.051 69.357 160.42 69.2776 158.275 69.5751C156.13 69.8726 155.47 69.7635 154.949 69.1148C154.427 68.4662 153.912 68.4481 152.168 68.8743C150.425 69.3005 149.485 69.9268 147.041 72.0192C145.421 73.424 143.599 74.6785 143.085 74.8325C142.113 75.0851 140.652 75.0053 140.277 74.677C140.017 74.4099 141.02 71.2928 141.726 70.1998C142.997 68.2096 143.58 66.0807 142.918 65.685C142.486 65.412 142.567 64.8703 143.242 63.5184C144.846 60.3363 145.775 55.3251 144.908 54.4351C144.359 53.8714 138.404 54.1216 136.892 54.7851C136.464 54.9708 136.032 54.7551 135.539 54.0787C134.93 53.2264 134.615 53.1867 132.7 53.6642C131.863 53.8506 131.05 54.1197 130.273 54.4677C130.074 54.604 129.439 54.0659 128.745 53.2966L127.557 51.8508L125.53 52.5537C124.467 52.9159 123.484 53.4633 122.623 54.1714C121.886 54.948 121.657 54.9973 121.079 54.404C120.24 53.5436 119.954 53.5909 118.42 54.9128C117.169 55.958 117.169 55.958 115.64 54.7296L114.054 53.4991L112.261 54.8406C111.025 55.8273 109.937 56.9848 109.027 58.281C107.161 60.9668 107.217 60.9115 105.953 60.4087C105.004 60.003 104.747 60.08 103.954 61.1412C103.509 61.7075 103.121 62.3177 102.796 62.9634C102.572 63.4714 102.371 63.4357 101.935 62.7614C101.122 61.5293 97.2127 59.9024 96.7898 60.6614C96.5921 60.9697 96.0552 61.7819 95.5745 62.4816C94.3338 64.2676 93.6836 66.4142 93.7104 68.635C93.7536 70.2699 93.2761 71.3135 92.7558 70.7795C92.6112 70.6312 92.2101 70.6171 91.8679 70.7771C91.1544 71.0674 91.1815 74.106 91.8586 76.1643C92.7705 78.8613 92.8091 79.9803 92.0363 80.0392C91.6069 80.0529 91.2935 80.2425 91.295 80.4145C91.3012 81.1025 94.395 84.3917 96.8758 86.3698C99.5294 88.4686 100.196 89.323 102.093 93.2581C103.755 96.6691 103.707 97.6991 101.893 99.8136L100.335 101.679L97.0263 100.045C89.4311 96.2254 81.8474 90.4866 74.7951 83.3049C69.1586 77.5196 63.1294 69.4567 53.6929 55.0559C52.4737 53.2366 51.458 51.7395 51.3723 51.7652C50.95 51.9595 50.5493 52.195 50.1756 52.4684L49.122 53.148L50.8598 55.3294C51.8158 56.5378 53.4396 58.7725 54.4842 60.2992C55.5289 61.8259 57.0944 63.944 57.9915 64.9784C58.7912 65.9471 59.5365 66.9587 60.2238 68.0081C60.5732 68.6508 61.4739 70.0865 62.2574 71.2316C63.0409 72.3766 64.1145 73.933 64.6368 74.6963C65.0585 75.3327 65.5437 75.926 66.0846 76.4664C66.7241 77.1679 67.2968 77.9269 67.7946 78.7328C70.4657 82.7809 81.4993 93.1968 87.1184 97.0328C89.8268 98.847 96.2192 102.681 97.5128 103.214C98.1456 103.523 98.0037 103.661 95.8639 104.589C92.6116 106.023 90.7775 105.901 88.1842 104.148C87.0316 103.363 85.8769 102.348 85.5575 101.85C85.238 101.352 83.5909 99.7179 81.8586 98.1671C79.3474 95.9873 78.1375 95.1999 76.2699 94.5328C74.9769 94.0577 73.772 93.8436 73.5449 94.0649C73.3177 94.2862 73.2914 94.5432 73.4359 94.6915C73.5804 94.8399 73.5551 95.2115 73.4147 95.5219C73.2742 95.8322 72.3579 95.8574 70.5203 95.3346C67.3333 94.4494 65.6173 94.7333 65.6012 96.1369C65.6089 96.9969 65.4664 97.0779 63.3489 97.2904C60.9738 97.5225 60.5742 97.6805 60.7522 98.3745C60.7832 98.6335 60.2995 98.9891 59.5282 99.2201C57.5094 99.8582 55.8358 101.241 54.8371 103.097C54.0198 104.587 53.9934 104.844 54.893 106.165C55.4127 106.936 56.0043 107.657 56.6593 108.319C57.4398 109.12 57.4403 109.177 55.9927 110.645C53.779 112.918 53.8074 112.89 54.5893 113.863C54.9661 114.363 55.1994 114.83 55.0858 114.941C52.4188 117.77 49.7879 121.433 49.3717 122.937L48.9007 124.726L50.7197 126.365C52.7126 128.241 52.7106 128.011 51.1688 131.769C50.7828 132.722 50.513 133.723 50.3648 134.75C50.2615 136.007 50.3781 136.24 51.7041 137.204C52.5109 137.748 53.1185 138.428 53.0916 138.628C53.0871 138.966 53.2131 139.299 53.4436 139.557C53.906 140.032 53.7047 146.358 53.2266 147.344C53.0976 147.588 53.0219 147.859 53.0045 148.139C52.929 148.935 52.8117 149.725 52.6533 150.505C52.3264 152.385 52.3852 152.559 53.2751 152.791C54.9115 153.221 58.3701 152.453 61.6508 150.992C67.014 148.6 66.8426 148.652 66.9354 149.429C66.9689 149.974 67.1418 150.095 67.5125 149.907C69.351 148.916 71.0772 147.738 72.6651 146.391C73.6677 145.389 75.0414 144.84 76.4894 144.862C77.3483 144.835 77.4351 144.924 77.7374 146.711C77.9474 147.779 77.9008 148.981 77.6184 149.43C77.336 149.878 77.2828 150.335 77.3984 150.454C77.514 150.572 77.148 151.276 76.6389 152.003C75.5635 153.456 72.8507 160.783 73.0586 161.621C73.1158 161.784 73.2216 161.926 73.3613 162.029C73.501 162.131 73.6674 162.189 73.837 162.193C74.8684 162.229 74.9288 162.575 74.4026 164.591C73.7395 167.319 73.8487 169.931 74.6509 169.959C75.1666 169.977 75.4324 170.875 75.7414 173.407C75.9409 175.203 76.3234 176.981 76.8827 178.714L77.5872 180.63L78.6444 180.352C79.2159 180.2 80.5829 179.331 81.7207 178.454L83.7398 176.834L84.0963 178.279C84.3452 179.18 84.7092 180.05 85.1791 180.867C85.7887 181.777 86.0189 181.9 86.7034 181.58C87.6445 181.125 87.8479 181.448 89.52 185.891C90.1362 187.546 91.0703 189.527 91.5922 190.233C92.4046 191.408 92.6059 191.501 93.6626 191.165C94.4801 190.798 95.2295 190.302 95.8835 189.696L96.9909 188.617L97.8611 189.851C98.2516 190.447 98.6109 191.062 98.9372 191.694C99.1122 192.044 99.3987 192.054 99.7962 191.666C100.506 190.975 100.766 191.185 101.037 192.656C101.186 193.377 101.795 194.23 102.979 195.331C104.712 196.939 104.741 196.969 105.736 196.173C106.732 195.377 106.789 195.379 108.292 196.864C109.158 197.697 109.996 198.557 110.17 198.792C110.344 199.028 110.773 198.899 111.17 198.512C111.852 197.848 111.909 197.85 113.704 199.976C114.716 201.129 116.774 203.867 118.311 206.012C119.849 208.158 121.297 209.985 121.526 209.993C122.243 210.047 123.176 205.495 123.391 200.774C123.512 198.285 124.355 193.185 124.724 192.825C124.757 192.785 124.799 192.751 124.846 192.728C124.892 192.704 124.944 192.69 124.997 192.686C125.05 192.683 125.104 192.69 125.156 192.707C125.207 192.725 125.255 192.752 125.296 192.788C125.903 193.411 126.594 190.541 126.569 187.789C126.515 184.892 126.571 184.78 127.658 184.588C128.744 184.397 128.801 184.342 128.591 183.274C128.474 182.587 128.392 181.895 128.344 181.202C128.305 180.083 128.038 179.071 126.891 175.621C126.448 174.201 126.148 172.7 126.288 172.275C126.427 171.85 125.987 170.66 125.319 169.576C124.585 168.258 123.941 166.895 123.392 165.497C122.952 164.364 122.249 162.562 121.839 161.516C120.17 157.475 120.071 155.952 121.28 153.502L122.406 151.248L124.791 152.163C129.074 153.832 130.354 156.054 130.521 162.021C130.616 166.265 131.342 170.589 132.247 172.484C133.416 175.046 133.444 175.076 134.472 174.653C135.271 174.338 135.587 174.435 135.965 175.05C137.097 176.837 139.885 181.061 140.145 181.328C140.289 181.477 140.689 181.319 141.058 180.959C141.626 180.406 141.971 180.533 143.729 181.769C145.105 182.714 146.572 183.515 148.103 184.157L150.432 185.07L150.954 182.595C151.199 181.257 151.474 179.891 151.5 179.634C151.526 179.377 151.606 178.72 151.631 178.291C151.711 177.578 152.026 177.617 154.126 178.637C156.054 179.592 156.627 179.67 157.138 179.172C157.876 178.452 158.623 178.708 159.953 180.073C160.729 180.767 161.604 181.339 162.546 181.768C164.185 182.485 164.299 182.489 165.12 181.4C165.555 180.811 165.914 180.17 166.191 179.488C166.498 178.553 167.213 178.378 167.564 179.193C167.739 179.6 168.112 179.642 168.597 179.401C169.081 179.16 169.97 179.277 171.179 179.892C172.138 180.389 173.152 180.762 174.196 181.001C175.257 181.124 175.456 181.045 175.962 179.973C176.693 178.452 176.665 178.479 177.3 179.075C177.808 179.451 178.387 179.716 178.997 179.85C179.657 180.017 180.892 180.318 181.724 180.548C182.987 180.878 183.302 180.803 183.839 180.048C184.377 179.293 184.691 179.218 186.499 179.597C187.647 179.866 190.174 180.585 192.098 181.254C197.613 183.052 201.715 183.74 202.539 182.938C202.936 182.55 202.38 181.878 199.084 178.323Z" fill="#257708"/>
</g>
<defs>
<clipPath id="clip0_654_2694">
<rect width="144.742" height="200.023" fill="white" transform="translate(243.256 143.268) rotate(135.746)"/>
</clipPath>
</defs>
</svg>
