<svg width="199" height="163" viewBox="0 0 199 163" fill="none" xmlns="http://www.w3.org/2000/svg">
<g clip-path="url(#clip0_654_2698)">
<path d="M137.182 22.4122C95.1968 18.9889 61.4119 25.4782 38.1516 41.3237C25.1395 50.2656 15.7654 61.7743 10.8574 74.9337C8.15418 82.4135 6.23611 97.1969 6.98279 105.152C7.63831 112.267 10.0223 123.816 10.7382 123.949C11.0564 124.008 13.9262 122.73 17.1879 121.113C25.8859 116.802 41.0108 105.783 58.5877 90.8588C84.43 69.0743 96.9881 61.6939 114.236 58.3093C126.024 55.9696 126.398 56.6149 115.228 60.0566C96.9961 65.6447 85.8993 73.1315 68.746 91.0966C62.711 97.4649 54.6721 105.766 50.8384 109.58C43.4538 117.015 29.9671 127.185 22.7041 130.857C20.2467 132.129 18.5495 133.296 18.9972 133.543C20.1815 134.257 34.0019 134.268 44.0543 133.746C82.2311 131.527 106.274 121.668 124.748 100.574C127.137 97.8907 133.491 89.3599 138.872 81.6362C153.525 60.7392 159.277 54.5653 171.338 46.7634C177.885 42.4309 185.072 39.1545 192.637 37.0543C195.324 36.3183 197.628 35.4291 197.687 35.1109C197.864 34.1564 188.9 31.9184 166.607 27.4562C154.425 24.9509 141.174 22.6257 137.182 22.4122Z" fill="#95C11F"/>
</g>
<defs>
<clipPath id="clip0_654_2698">
<rect width="177.063" height="131.388" fill="white" transform="translate(23.9509 0.892761) rotate(10.5033)"/>
</clipPath>
</defs>
</svg>
