<?xml version="1.0" encoding="UTF-8"?><svg id="Layer_2" xmlns="http://www.w3.org/2000/svg" viewBox="0 0 154.89 200"><defs><style>.cls-1{fill:#28783b;}</style></defs><g id="Layer_1-2"><path class="cls-1" d="M79.66,195.69c-5.14-2.86-7.69-7.85-7.69-14.98,0-4.52,1.12-9.57,3.38-15.13,3.13,3.48,6.04,5.92,8.74,7.3,2.68,1.4,5.6,2.08,8.73,2.08,8.69,0,15.16-4.86,19.43-14.6,4.25-9.72,6.39-20.5,6.39-32.32,0-22.09-8.25-33.12-24.77-33.12-4.69,0-8.69,.25-11.99,.79l-21.38,99.86H22.95L58.41,29.73l38.59-5.22-12.25,57.89h1.57c6.6,0,12.77-2.12,18.5-6.39,5.74-4.24,10.34-9.63,13.82-16.17,3.48-6.51,5.22-13.07,5.22-19.67,0-8-2.83-14.71-8.48-20.1-5.66-5.37-14.3-8.08-25.95-8.08-10.6,0-20.94,2.4-31.02,7.17-10.08,4.8-18.3,11.97-24.64,21.52-6.36,9.57-9.53,21.14-9.53,34.67,0,6.45,.62,10.93,1.84,13.43,1.21,2.53,1.82,3.97,1.82,4.31-9.22,0-16.17-1.87-20.87-5.6-4.69-3.73-7.03-9.87-7.03-18.38,0-11.82,4.44-23.05,13.29-33.66,8.87-10.59,20.6-19.16,35.2-25.68C63.1,3.27,78.48,0,94.65,0c12.17,0,22.43,1.91,30.77,5.75,8.34,3.82,14.56,8.85,18.64,15.11,4.08,6.26,6.13,13.14,6.13,20.6,0,8-2.26,15.75-6.78,23.21-4.53,7.47-10.95,13.56-19.3,18.25,10.43,1.91,18.16,6.73,23.2,14.47,5.04,7.72,7.56,16.91,7.56,27.5,0,9.91-1.87,20.69-5.6,32.34-3.75,11.65-9.91,21.69-18.51,30.11-8.6,8.42-19.61,12.65-32.99,12.65-6.96,0-13-1.42-18.12-4.31Z"/></g></svg>